<svg height="54" viewBox="0 0 112 54" xmlns="http://www.w3.org/2000/svg">
  <path fill-rule="evenodd" clip-rule="evenodd" d="M1 6C0.447715 6 0 6.44772 0 7V48C0 48.5523 0.447715 49 1 49H37V47H28V40H37V38H28V31H37V29H28V23H37V21H2V8H37V6H1ZM26 47V40H2V47H26ZM26 38H2V31H26V38ZM26 29H2V23H26V29Z" fill="url(#paint0_linear_72_40)"/>
  <path d="M54.182 21V15.28L54.556 16.292L48.022 5.6H49.76L55.502 14.994H54.578L60.32 5.6H61.948L55.414 16.292L55.788 15.28V21H54.182ZM67.7383 21.11C66.5356 21.11 65.4796 20.8607 64.5703 20.362C63.661 19.8487 62.9496 19.152 62.4363 18.272C61.923 17.3773 61.6663 16.358 61.6663 15.214C61.6663 14.07 61.9083 13.058 62.3923 12.178C62.891 11.298 63.5656 10.6087 64.4163 10.11C65.2816 9.59667 66.2496 9.34 67.3203 9.34C68.4056 9.34 69.3663 9.58933 70.2023 10.088C71.053 10.572 71.7203 11.2613 72.2043 12.156C72.6883 13.036 72.9303 14.0553 72.9303 15.214C72.9303 15.2873 72.923 15.368 72.9083 15.456C72.9083 15.5293 72.9083 15.61 72.9083 15.698H62.8543V14.532H72.0723L71.4563 14.994C71.4563 14.158 71.273 13.4173 70.9063 12.772C70.5543 12.112 70.0703 11.5987 69.4543 11.232C68.8383 10.8653 68.127 10.682 67.3203 10.682C66.5283 10.682 65.817 10.8653 65.1863 11.232C64.5556 11.5987 64.0643 12.112 63.7123 12.772C63.3603 13.432 63.1843 14.1873 63.1843 15.038V15.28C63.1843 16.16 63.375 16.9373 63.7563 17.612C64.1523 18.272 64.695 18.7927 65.3843 19.174C66.0883 19.5407 66.8876 19.724 67.7823 19.724C68.4863 19.724 69.139 19.5993 69.7403 19.35C70.3563 19.1007 70.8843 18.7193 71.3243 18.206L72.2043 19.218C71.691 19.834 71.0456 20.3033 70.2683 20.626C69.5056 20.9487 68.6623 21.11 67.7383 21.11ZM81.0156 21.11C79.813 21.11 78.757 20.8607 77.8476 20.362C76.9383 19.8487 76.227 19.152 75.7136 18.272C75.2003 17.3773 74.9436 16.358 74.9436 15.214C74.9436 14.07 75.1856 13.058 75.6696 12.178C76.1683 11.298 76.843 10.6087 77.6936 10.11C78.559 9.59667 79.527 9.34 80.5976 9.34C81.683 9.34 82.6436 9.58933 83.4796 10.088C84.3303 10.572 84.9976 11.2613 85.4816 12.156C85.9656 13.036 86.2076 14.0553 86.2076 15.214C86.2076 15.2873 86.2003 15.368 86.1856 15.456C86.1856 15.5293 86.1856 15.61 86.1856 15.698H76.1316V14.532H85.3496L84.7336 14.994C84.7336 14.158 84.5503 13.4173 84.1836 12.772C83.8316 12.112 83.3476 11.5987 82.7316 11.232C82.1156 10.8653 81.4043 10.682 80.5976 10.682C79.8056 10.682 79.0943 10.8653 78.4636 11.232C77.833 11.5987 77.3416 12.112 76.9896 12.772C76.6376 13.432 76.4616 14.1873 76.4616 15.038V15.28C76.4616 16.16 76.6523 16.9373 77.0336 17.612C77.4296 18.272 77.9723 18.7927 78.6616 19.174C79.3656 19.5407 80.165 19.724 81.0596 19.724C81.7636 19.724 82.4163 19.5993 83.0176 19.35C83.6336 19.1007 84.1616 18.7193 84.6016 18.206L85.4816 19.218C84.9683 19.834 84.323 20.3033 83.5456 20.626C82.783 20.9487 81.9396 21.11 81.0156 21.11ZM93.039 21.11C91.9537 21.11 91.1177 20.8167 90.531 20.23C89.9443 19.6433 89.651 18.8147 89.651 17.744V6.898H91.213V17.656C91.213 18.3307 91.3817 18.8513 91.719 19.218C92.071 19.5847 92.5697 19.768 93.215 19.768C93.9043 19.768 94.4763 19.57 94.931 19.174L95.481 20.296C95.173 20.5747 94.799 20.78 94.359 20.912C93.9337 21.044 93.4937 21.11 93.039 21.11ZM87.583 10.748V9.45H94.733V10.748H87.583Z"/>
  <linearGradient id="paint0_linear_72_40" x1="6.82487" y1="4.80774" x2="6.82487" y2="66.8263" gradientUnits="userSpaceOnUse">
    <stop stop-color="#FEB643"/>
    <stop offset="0.23" stop-color="#FC638A"/>
    <stop offset="0.71" stop-color="#935FFC"/>
    <stop offset="1" stop-color="#53CDE7"/>
  </linearGradient>
</svg>
